<?xml version="1.0" encoding="UTF-8"?>
<svg width="161px" height="170px" viewBox="0 0 161 170" version="1.1" xmlns="http://www.w3.org/2000/svg" xmlns:xlink="http://www.w3.org/1999/xlink">
    <!-- Generator: Sketch 61.2 (89653) - https://sketch.com -->
    <title>Group</title>
    <desc>Created with Sketch.</desc>
    <defs>
        <path d="M83.363,35.528 C83.363,35.528 74.391,67.34 58.147,77.846 C56.258,79.07 54.269,80.003 52.185,80.564 C50.727,80.958 49.221,81.169 47.67,81.169 C24.85,81.169 0.859,16.999 0.859,16.999 L28.36,0.225 L45.329,26.751 C45.329,26.751 54.106,10.562 59.372,5.881 C64.639,1.2 79.657,1.59 79.657,1.59 C84.144,18.364 109.499,0.81 109.499,0.81 C109.499,0.81 128.249,-0.555 134.271,1.785 C141.292,4.516 165.185,44.095 158.456,61.664 L83.363,35.528 Z" id="path-1"></path>
    </defs>
    <g id="Specs" stroke="none" stroke-width="1" fill="none" fill-rule="evenodd">
        <g id="Desktop-HD" transform="translate(-640.000000, -366.000000)">
            <g id="Group" transform="translate(640.000000, 366.000000)">
                <path d="M26.2391287,76.787 C23.7451287,76.074 22.2641287,80.424 21.4861287,83.935 L17.2681287,78.153 L3.22412874,87.515 L7.57112874,102.17 L26.4081287,90.68 C26.4081287,90.68 30.9841287,78.143 26.2391287,76.787" id="Fill-55" fill="#9B4A3A"></path>
                <polyline id="Fill-56" fill="#3483FA" points="134.588129 105.069 134.588129 135.301 103.319129 169.824 59.0071287 169.824 60.7941287 128.474 134.588129 105.069"></polyline>
                <polyline id="Fill-57" fill="#B2614E" points="110.406129 89.387 107.405129 101.268 77.3131287 99.384 80.9101287 90.169 83.4491287 68.58 104.262129 54.997 110.406129 89.387"></polyline>
                <path d="M95.5571287,68.506 C93.1911287,74.873 88.0131287,80.049 81.7861287,82.719 L83.3741287,69.233 L89.5811287,65.155 C91.5851287,66.276 93.5111287,67.38 95.5571287,68.506" id="Fill-58" fill="#000000"></path>
                <path d="M106.517129,45.522 L97.4681287,69.466 C97.4681287,69.466 85.2441287,82.07 72.6331287,71 C65.6371287,64.845 63.6261287,48.522 67.1011287,35.728 C67.2131287,35.32 67.3271287,34.919 67.4481287,34.52 L67.5021287,34.341 L67.5771287,34.097 L67.6141287,33.977 C67.7651287,33.517 67.9211287,33.058 68.0901287,32.608 C68.2011287,32.281 68.3191287,31.969 68.4491287,31.657 C68.6071287,31.248 68.7791287,30.844 68.9521287,30.448 C70.8011287,26.237 73.3931287,22.767 76.7571287,20.712 C77.5201287,20.244 78.3201287,19.843 79.1661287,19.532 C79.5541287,19.384 79.9501287,19.258 80.3541287,19.149 C80.6781287,19.058 81.0111287,18.983 81.3441287,18.918 C82.2211287,18.751 83.1271287,18.662 84.0741287,18.6629835 L84.3391287,18.667 C92.4131287,18.723 97.6071287,22.003 100.952129,26.179 C105.179129,31.45 106.449129,38.168 106.835129,41.747 C106.848129,41.877 106.863129,41.999 106.875129,42.121 L106.891129,42.297 L106.915129,42.647 C106.938129,42.977 106.958129,43.264 106.973129,43.501 C106.994129,43.826 106.999129,44.056 107.003129,44.167 L107.002129,44.246 L106.517129,45.522 Z" id="Fill-59" fill="#B2614E"></path>
                <path d="M78.6511287,57.548 C77.8961287,57.548 77.1701287,57.23 76.6581287,56.676 C76.1461287,56.122 75.8871287,55.373 75.9451287,54.62 L76.7051287,45.022 L77.9511287,45.12 L77.1911287,54.718 C77.1591287,55.131 77.2961287,55.524 77.5761287,55.828 C77.8561287,56.131 78.2381287,56.298 78.6511287,56.298 L78.6521287,56.298 L78.6521287,57.548 L78.6511287,57.548" id="Fill-60" fill="#000000"></path>
                <path d="M84.4901287,45.99 C84.4911287,46.719 84.9131287,47.309 85.4341287,47.309 C85.9541287,47.309 86.3761287,46.718 86.3751305,45.99 C86.3751305,45.261 85.9531287,44.671 85.4331287,44.671 C84.9121287,44.671 84.4901287,45.262 84.4901287,45.99" id="Fill-61" fill="#000000"></path>
                <path d="M70.168127,45.995 C70.168127,46.724 70.5901287,47.315 71.1101287,47.3140013 C71.6311287,47.3140013 72.0531287,46.723 72.0521305,45.995 C72.0521305,45.266 71.6301287,44.676 71.1091287,44.676 C70.5891287,44.676 70.1671287,45.267 70.168127,45.995" id="Fill-62" fill="#000000"></path>
                <path d="M87.7371287,39.822 C88.1441287,39.925 88.5521287,40.054 88.8751287,40.261 C89.1981287,40.468 89.4251287,40.769 89.3701287,41.046 C89.2801287,41.504 88.5231287,41.694 87.8511287,41.748 C86.4071287,41.866 84.8681287,41.701 83.4541287,41.276 C82.9541287,41.126 82.4141287,40.901 82.2581287,40.548 C81.8941287,39.727 83.4151287,39.474 84.0351287,39.437 C85.2411287,39.363 86.5521287,39.519 87.7371287,39.822" id="Fill-63" fill="#000000"></path>
                <path d="M72.6851287,39.43 C73.0481287,39.463 73.4161287,39.518 73.7191287,39.657 C74.0221287,39.797 74.2521287,40.035 74.2351287,40.294 C74.2071287,40.722 73.5721287,41.007 72.9961287,41.157 C71.7591287,41.479 70.4071287,41.56 69.1351287,41.387 C68.6851287,41.326 68.1931287,41.202 68.0191287,40.906 C67.6121287,40.218 68.9021287,39.761 69.4361287,39.635 C70.4731287,39.388 71.6251287,39.333 72.6851287,39.43" id="Fill-64" fill="#000000"></path>
                <path d="M159.455129,150.32 L84.3621287,124.182 C84.3621287,124.182 75.3901287,155.995 59.1471287,166.5 C57.2581287,167.725 55.2681287,168.658 53.1851287,169.22 C51.7251287,169.612 50.2201287,169.825 48.6701287,169.825 C32.4921287,169.825 15.7231287,137.57 7.33312874,118.798 C3.89012874,111.09 1.85712874,105.655 1.85712874,105.655 L29.3601287,88.88 L46.3301287,115.408 C46.3301287,115.408 55.1071287,99.218 60.3721287,94.537 C65.6381287,89.855 80.6571287,90.245 80.6571287,90.245 C85.1431287,107.02 110.500129,89.465 110.500129,89.465 C110.500129,89.465 129.250129,88.1 135.270129,90.44 C142.293129,93.17 166.185129,132.75 159.455129,150.32" id="Fill-65" fill="#3483FA"></path>
                <polyline id="Fill-66" fill="#264F8E" points="124.831129 146.073 103.319129 169.824 95.2611287 169.824 86.3131287 137.349 116.351129 126.036 120.446129 113.749 124.831129 146.073"></polyline>
                <path d="M81.3921287,149.863 C76.9881287,151.126 74.1121287,150.126 73.7891287,147.76 C73.5221287,145.819 80.3121287,144.28 86.2621287,143.845 C90.2641287,143.553 94.7731287,142.585 94.7731287,142.585" id="Fill-67" fill="#B2614E"></path>
                <path d="M94.7731287,142.585 L102.654129,164.315 C102.654129,164.315 77.8571287,169.256 75.6291287,166.949 C74.2941287,165.567 75.3691287,164.502 75.3691287,164.502 C75.3691287,164.502 72.9191287,165.304 71.8381287,164.213 C70.7561287,163.12 71.5781287,161.765 71.5781287,161.765 C71.5781287,161.765 69.3621287,162.149 69.1801287,160.088 C68.9801287,157.834 75.0921287,153.601 81.3921287,149.863" id="Fill-68" fill="#B2614E"></path>
                <path d="M72.0001287,162.227 L71.1561287,161.303 C71.3051287,161.169 74.8441287,157.964 80.3201287,155.532 L80.8281287,156.675 C75.5351287,159.024 72.0341287,162.195 72.0001287,162.227" id="Fill-69" fill="#000000"></path>
                <path d="M75.7041287,165.029 L75.0331287,163.974 C75.1911287,163.874 78.9381287,161.501 82.7551287,159.887 L83.2421287,161.039 C79.5231287,162.611 75.7421287,165.005 75.7041287,165.029" id="Fill-70" fill="#000000"></path>
                <path d="M85.2621287,1 C88.7651287,0.224 92.6731287,1.894 94.5351287,4.961 C96.3961287,8.028 96.0741287,12.265 93.7711287,15.015 C91.4671287,17.765 87.3511287,18.825 84.0051287,17.529 C76.1841287,14.499 77.0711287,2.813 85.2621287,1" id="Fill-71" fill="#000000"></path>
                <path d="M159.455129,150.32 C154.822129,162.84 131.865129,167.325 116.018129,168.93 C107.180129,169.825 100.553129,169.825 100.553129,169.825 L91.9701287,139.008 L120.447129,128.67 L120.447129,113.65 L159.455129,150.32" id="Fill-72" fill="#3483FA"></path>
                <path d="M60.7631287,128.474 L59.1471287,166.501 C57.2581287,167.725 55.2691287,168.658 53.1851287,169.219 L60.7631287,128.474" id="Fill-73" fill="#264F8E"></path>
                <path d="M47.0831287,39.786 C56.2391287,46.963 57.8451287,60.203 50.6681287,69.36 C44.2656825,77.5278693 33.0374822,79.6866243 24.1884989,74.9630644 L9.23112874,95.9 C7.62512874,98.149 4.46712874,98.603 2.29212874,96.898 C0.116128737,95.194 -0.196871263,92.019 1.60312874,89.921 L18.3641037,70.3878701 C11.6913993,62.9226002 11.1173833,51.5262449 17.5091287,43.37 C24.6851287,34.214 37.9271287,32.609 47.0831287,39.786 Z M35.4651287,40.624 C30.3271287,40.179 25.0721287,42.258 21.6541287,46.62 C20.1061287,48.595 19.1031287,50.824 18.6231287,53.124 C17.8161287,56.98 18.4791287,61.04 20.5111287,64.449 C21.4781287,66.079 22.7601287,67.559 24.3421287,68.799 C27.7501287,71.472 31.9141287,72.52 35.9011287,72.058 C38.5981287,71.746 41.2141287,70.743 43.4631287,69.084 C44.5871287,68.257 45.6191287,67.263 46.5221287,66.11 C51.4111287,59.873 50.8671287,51.11 45.5791287,45.52 C45.0461287,44.957 44.4641287,44.424 43.8341287,43.931 C43.7321287,43.852 43.6311287,43.774 43.5291287,43.697 C42.4001287,42.857 41.1931287,42.186 39.9401287,41.685 C38.4931287,41.109 36.9831287,40.756 35.4651287,40.624 Z" id="Combined-Shape" fill="#FFE600"></path>
                <path d="M19.2151287,89.342 C19.2151287,89.342 20.1621287,90.488 18.7241287,91.707 C17.3171287,92.903 4.77612874,90.514 3.25612874,88.341 C1.12312874,85.288 9.76312874,74.159 14.7541287,74.456 C18.7211287,74.691 26.1061287,83.451 25.6911287,85.633 C25.3131287,87.628 23.1861287,87.037 23.1861287,87.037 C23.1861287,87.037 23.8561287,88.442 22.6941287,89.402 C21.5301287,90.367 19.2151287,89.342 19.2151287,89.342" id="Fill-82" fill="#B2614E"></path>
                <path d="M22.7201287,87.456 C22.6881287,87.421 19.5681287,83.979 14.6381287,81.176 L15.2561287,80.089 C20.3721287,82.998 23.5191287,86.474 23.6501287,86.621 L22.7201287,87.456" id="Fill-83" fill="#000000"></path>
                <path d="M18.8291287,89.835 C18.7951287,89.807 15.3341287,87.101 11.8551287,85.205 L12.4541287,84.107 C16.0271287,86.055 19.4571287,88.738 19.6021287,88.851 L18.8291287,89.835" id="Fill-84" fill="#000000"></path>
                <path d="M69.7341287,44.352 C66.9061287,44.352 64.6051287,46.653 64.6051287,49.481 C64.6051287,52.309 66.9061287,54.61 69.7341287,54.61 C72.5631287,54.61 74.8631287,52.309 74.8631287,49.481 C74.8631287,46.653 72.5631287,44.352 69.7341287,44.352 Z M69.7341287,55.86 C66.2181287,55.86 63.3551287,52.998 63.3551287,49.481 C63.3551287,45.964 66.2181287,43.102 69.7341287,43.102 C73.2521287,43.102 76.1131287,45.964 76.1131287,49.481 C76.1131287,52.998 73.2521287,55.86 69.7341287,55.86 L69.7341287,55.86 Z" id="Fill-85" fill="#FFE600"></path>
                <path d="M84.1681287,44.352 C81.3401287,44.352 79.0391287,46.653 79.0391287,49.481 C79.0391287,52.309 81.3401287,54.61 84.1681287,54.61 C86.9961287,54.61 89.2971287,52.309 89.2971287,49.481 C89.2971287,46.653 86.9961287,44.352 84.1681287,44.352 Z M84.1681287,55.86 C80.6501287,55.86 77.7891287,52.998 77.7891287,49.481 C77.7891287,45.964 80.6501287,43.102 84.1681287,43.102 C87.6861287,43.102 90.5471287,45.964 90.5471287,49.481 C90.5471287,52.998 87.6861287,55.86 84.1681287,55.86 L84.1681287,55.86 Z" id="Fill-86" fill="#FFE600"></path>
                <polygon id="Fill-87" fill="#FFE600" points="75.4881287 50.008 78.4141287 50.008 78.4141287 48.758 75.4881287 48.758"></polygon>
                <polygon id="Fill-88" fill="#FFE600" points="89.6091287 48.842 104.823129 40.065 105.447129 41.148 90.2341287 49.925"></polygon>
                <path d="M106.835129,41.747 C101.271129,41.906 95.6461287,40.194 91.1671287,36.874 C86.6491287,33.522 83.3691287,28.568 81.9261287,23.133 C78.5101287,28.217 73.3851287,32.152 67.5771287,34.097 L67.6141287,33.977 C67.7651287,33.517 67.9211287,33.058 68.0901287,32.608 C68.2011287,32.281 68.3191287,31.969 68.4491287,31.657 C68.6071287,31.248 68.7791287,30.844 68.9521287,30.448 C70.8011287,26.237 73.3931287,22.767 76.7571287,20.712 C77.5201287,20.244 78.3201287,19.843 79.1661287,19.532 C79.5541287,19.384 79.9501287,19.258 80.3541287,19.149 C80.6781287,19.058 81.0111287,18.983 81.3441287,18.918 C82.2211287,18.751 83.1271287,18.662 84.0741287,18.6629917 L84.3391287,18.667 C92.4131287,18.723 97.6071287,22.003 100.952129,26.179 C105.179129,31.45 106.449129,38.168 106.835129,41.747" id="Fill-89" fill="#000000"></path>
                <path d="M101.815129,43.398 C102.706129,41.958 104.485129,41.195 106.175129,41.31 C107.863129,41.426 109.438129,42.333 110.582129,43.58 C113.196129,46.431 113.475129,51.144 111.214129,54.283 C108.954129,57.422 104.396129,58.652 100.863129,57.075" id="Fill-90" fill="#B2614E"></path>
                <path d="M107.246129,52.523 L106.000129,52.433 C106.146129,50.399 105.389129,48.308 103.974129,46.839 L104.439129,45.781 L108.209129,45.873 L108.179129,47.123 L105.759129,47.063 C106.838129,48.651 107.384129,50.609 107.246129,52.523" id="Fill-91" fill="#000000"></path>
                <path d="M79.1311287,60.872 L79.0481287,59.624 C79.9341287,59.566 80.5851287,59.365 81.0401287,59.01 C81.5081287,58.645 81.8041287,58.074 81.8321287,57.482 L83.0801287,57.54 C83.0351287,58.492 82.5611287,59.41 81.8091287,59.996 C81.1501287,60.509 80.2731287,60.796 79.1311287,60.872" id="Fill-92" fill="#000000"></path>
                <g id="Group-95" transform="translate(1.000129, 88.655000)">
                    <mask id="mask-2" fill="white">
                        <use xlink:href="#path-1"></use>
                    </mask>
                    <g id="Clip-94"></g>
                    <path d="M90.929,17.415 C86.598,17.415 82.452,16.166 79.296,13.822 C74.515,10.273 72.14,4.109 73.52,-1.167 L74.729,-0.851 C73.475,3.945 75.658,9.566 80.041,12.818 C84.012,15.768 89.688,16.857 95.223,15.732 C100.008,14.76 104.751,12.27 109.322,8.33 C113.286,4.912 116.622,0.885 120.263,-3.644 L121.237,-2.86 C117.558,1.717 114.183,5.79 110.138,9.276 C105.403,13.357 100.469,15.942 95.472,16.957 C93.958,17.265 92.432,17.415 90.929,17.415" id="Fill-93" fill="#000000" mask="url(#mask-2)"></path>
                </g>
                <path d="M35.3721287,98.28 L7.33312874,118.798 C3.89012874,111.09 1.85712874,105.655 1.85712874,105.655 L29.3601287,88.88 L35.3721287,98.28" id="Fill-96" fill="#FFFFFF"></path>
                <path d="M116.018129,168.93 C107.180129,169.825 100.553129,169.825 100.553129,169.825 L91.9701287,139.008 L103.478129,134.83 L116.018129,168.93" id="Fill-97" fill="#FFFFFF"></path>
                <path d="M9.87512874,107.905 C9.11712874,107.905 8.50012874,108.522 8.50012874,109.28 C8.50012874,110.038 9.11712874,110.655 9.87512874,110.655 C10.6331287,110.655 11.2501287,110.038 11.2501287,109.28 C11.2501287,108.522 10.6331287,107.905 9.87512874,107.905 Z M9.87512874,111.905 C8.42812874,111.905 7.25012874,110.727 7.25012874,109.28 C7.25012874,107.833 8.42812874,106.655 9.87512874,106.655 C11.3221287,106.655 12.5001287,107.833 12.5001287,109.28 C12.5001287,110.727 11.3221287,111.905 9.87512874,111.905 L9.87512874,111.905 Z" id="Fill-98" fill="#000000"></path>
                <path d="M105.625129,160.405 C104.867129,160.405 104.250129,161.022 104.250129,161.78 C104.250129,162.538 104.867129,163.155 105.625129,163.155 C106.383129,163.155 107.000129,162.538 107.000129,161.78 C107.000129,161.022 106.383129,160.405 105.625129,160.405 Z M105.625129,164.405 C104.178129,164.405 103.000129,163.227 103.000129,161.78 C103.000129,160.333 104.178129,159.155 105.625129,159.155 C107.072129,159.155 108.250129,160.333 108.250129,161.78 C108.250129,163.227 107.072129,164.405 105.625129,164.405 L105.625129,164.405 Z" id="Fill-99" fill="#000000"></path>
            </g>
        </g>
    </g>
</svg>