<?xml version="1.0" encoding="UTF-8"?>
<svg width="74px" height="64px" viewBox="0 0 74 64" version="1.1" xmlns="http://www.w3.org/2000/svg" xmlns:xlink="http://www.w3.org/1999/xlink">
    <!-- Generator: Sketch 61.2 (89653) - https://sketch.com -->
    <title>motocross</title>
    <desc>Created with Sketch.</desc>
    <g id="Specs" stroke="none" stroke-width="1" fill="none" fill-rule="evenodd">
        <g id="/-(view-2)" transform="translate(-790.000000, -575.000000)" fill-rule="nonzero">
            <g id="Group-3-Copy-6" transform="translate(722.000000, 542.000000)">
                <g id="motocross" transform="translate(68.000000, 33.000000)">
                    <path d="M59.2592593,35.5555556 C54.2637037,35.5555556 49.8797037,38.1546667 47.346963,42.0622222 C47.3718519,42.2625185 47.4074074,42.4592593 47.4074074,42.6666667 C47.4074074,44.2417778 46.6311111,45.6272593 45.4482963,46.4888889 C45.376,46.7922963 45.3037037,47.0968889 45.2503704,47.4074074 L51.3054815,47.4074074 C51.309037,47.3979259 51.3161481,47.3825185 51.3232593,47.3635556 C51.5685926,46.7614815 52.7478519,43.8743704 55.6717037,42.3798519 C56.1398519,42.1404444 57.5348148,41.4459259 59.2592593,41.4814815 C62.7875556,41.5537778 67.5555556,44.6743704 67.5555556,49.7777778 C67.5555556,54.8065185 62.9143704,57.92 59.2592593,58.0740741 C58.8539259,58.0906667 56.5582222,58.1511111 54.5125926,56.6696296 C52.5321481,55.2367407 51.6337778,52.9742222 51.3232593,52.1931852 C51.3161481,52.1742222 51.3102222,52.1588148 51.3054815,52.1481481 L45.2503704,52.1481481 C46.3845926,58.8634074 52.2263704,64 59.2592593,64 C67.1016296,64 73.4814815,57.6201481 73.4814815,49.7777778 C73.4814815,41.9354074 67.1016296,35.5555556 59.2592593,35.5555556 L59.2592593,35.5555556 Z" id="Path" fill="#FDD835"></path>
                    <path d="M19.9087407,36.7502222 L18.7259259,42.6666667 L18.6986667,42.802963 C20.992,44.2808889 22.5185185,46.8515556 22.5185185,49.7777778 C22.5185185,54.3525926 18.797037,58.0740741 14.2222222,58.0740741 C9.64740741,58.0740741 5.92592593,54.3525926 5.92592593,49.7777778 C5.92592593,45.394963 9.344,41.805037 13.6521481,41.5099259 L14.7816296,35.584 C14.5943704,35.5768889 14.4106667,35.5555556 14.2222222,35.5555556 C6.37985185,35.5555556 -4.21062362e-15,41.9354074 -4.21062362e-15,49.7777778 C-4.21062362e-15,57.6201481 6.37985185,64 14.2222222,64 C22.0645926,64 28.4444444,57.6201481 28.4444444,49.7777778 C28.4444444,43.9573333 24.9268148,38.9499259 19.9087407,36.7502222 L19.9087407,36.7502222 Z" id="Path" fill="#FDD835"></path>
                    <path d="M73.4814815,27.2592593 C73.4814815,22.6844444 69.76,18.962963 65.1851852,18.962963 L53.5466667,18.962963 C50.2838519,18.962963 47.2521481,20.1718519 44.914963,22.2471111 L42.4094815,19.1146667 C39.9217778,16.0059259 36.210963,14.2222222 32.2299259,14.2222222 L28.4444444,14.2222222 C27.4595556,14.2222222 26.482963,14.3739259 25.5395556,14.6394074 L27.0459259,7.11111111 L33.1851852,7.11111111 C35.1454815,7.11111111 36.7407407,5.51585185 36.7407407,3.55555556 C36.7407407,1.59525926 35.1454815,0 33.1851852,0 L23.2948148,0 C21.5905185,0 20.1208889,1.216 19.8020741,2.89066667 L18.0468148,12.1042963 C17.0121481,11.2213333 15.6871111,10.6666667 14.2222222,10.6666667 L5.92592593,10.6666667 L5.92592593,22.5185185 L14.2222222,22.5185185 C14.893037,22.5185185 15.5271111,22.3822222 16.128,22.176 L12.6518519,40.4266667 C8.14814815,41.1804444 4.74074074,45.1211852 4.74074074,49.7777778 C4.74074074,55.0056296 8.99437037,59.2592593 14.2222222,59.2592593 C19.4500741,59.2592593 23.7037037,55.0056296 23.7037037,49.7777778 C23.7037037,46.8136296 22.3300741,44.0782222 20.0106667,42.2874074 L21.4945185,34.8657778 C27.1205926,37.6225185 30.8148148,43.442963 30.8148148,49.7777778 C30.8148148,51.7380741 32.4100741,53.3333333 34.3703704,53.3333333 L50.5007407,53.3333333 C51.9371852,56.8545185 55.4014815,59.2592593 59.2592593,59.2592593 C64.4871111,59.2592593 68.7407407,55.0056296 68.7407407,49.7777778 C68.7407407,44.5499259 64.4871111,40.2962963 59.2592593,40.2962963 C55.4026667,40.2962963 51.9383704,42.701037 50.5007407,46.2222222 L47.3765926,46.2222222 C48.1291852,45.229037 48.5925926,44.0059259 48.5925926,42.6666667 C48.5925926,40.3863704 47.2841481,38.4260741 45.3914074,37.4364444 L47.4382222,35.9739259 C49.9934815,34.1487407 53.0014815,33.1851852 56.141037,33.1851852 L60.4444444,33.1851852 C65.5466667,33.1851852 69.8180741,36.7881481 70.8622222,41.5822222 C72.5060741,43.9016296 73.4814815,46.7247407 73.4814815,49.7777778 L73.4814815,43.8518519 C73.4814815,39.442963 71.2758519,35.5460741 67.917037,33.1851852 L73.4814815,33.1851852 L73.4814815,27.2592593 Z M22.130963,3.33392593 C22.2376296,2.7757037 22.7259259,2.37037037 23.2948148,2.37037037 L33.1851852,2.37037037 C33.8382222,2.37037037 34.3703704,2.90251852 34.3703704,3.55555556 C34.3703704,4.20859259 33.8382222,4.74074074 33.1851852,4.74074074 L25.1022222,4.74074074 L17.5632593,42.4343704 L15.7783704,51.36 C15.6871111,51.8162963 15.282963,52.1481481 14.8171852,52.1481481 L14.0183704,52.1481481 C13.4767407,52.1481481 13.037037,51.7084444 13.037037,51.1668148 C13.037037,51.1051852 13.042963,51.0435556 13.0548148,50.9831111 L18.9262222,20.1552593 C19.6823704,19.1608889 20.1481481,17.9354074 20.1481481,16.5925926 C20.1481481,16.0414815 20.0485926,15.5176296 19.9063704,15.0103704 L22.130963,3.33392593 Z M8.2962963,13.037037 L10.6666667,13.037037 L10.6666667,20.1481481 L8.2962963,20.1481481 L8.2962963,13.037037 Z M13.037037,20.1481481 L13.037037,13.037037 L14.2222222,13.037037 C16.1825185,13.037037 17.7777778,14.6322963 17.7777778,16.5925926 C17.7777778,18.5528889 16.1825185,20.1481481 14.2222222,20.1481481 L13.037037,20.1481481 Z M21.3333333,49.7777778 C21.3333333,53.6995556 18.144,56.8888889 14.2222222,56.8888889 C10.3004444,56.8888889 7.11111111,53.6995556 7.11111111,49.7777778 C7.11111111,46.5955556 9.23496296,43.8648889 12.1659259,42.976 L10.7247407,50.5398519 C10.6868148,50.7472593 10.6666667,50.957037 10.6666667,51.1668148 C10.6666667,53.0145185 12.1706667,54.5185185 14.0183704,54.5185185 L14.8171852,54.5185185 C16.4088889,54.5185185 17.7908148,53.3854815 18.1025185,51.8245926 L19.4702222,44.9825185 C20.6565926,46.2755556 21.3333333,47.9727407 21.3333333,49.7777778 L21.3333333,49.7777778 Z M21.9721481,32.4788148 L24.9967407,17.3582222 C26.0728889,16.8663704 27.250963,16.5925926 28.4444444,16.5925926 L32.2299259,16.5925926 C35.488,16.5925926 38.5232593,18.0515556 40.5594074,20.594963 L43.2841481,24.0011852 C42.8432593,24.5688889 42.4414815,25.170963 42.093037,25.8180741 L38.4213333,21.6225185 C36.941037,19.9324444 34.8041481,18.962963 32.5582222,18.962963 L29.1614815,18.962963 C27.4820741,18.962963 26.0551111,20.1078519 25.6900741,21.746963 L23.5093333,31.5626667 L26.1866667,32.5665185 C29.4826667,33.8026667 31.9537778,36.6091852 32.8248889,39.9893333 C32.2026667,40.4302222 31.7025185,41.0228148 31.3528889,41.7054815 C29.4423704,37.6758519 26.1428148,34.3537778 21.9721481,32.4788148 Z M35.5555556,41.4814815 C36.8628148,41.4814815 37.9259259,42.5445926 37.9259259,43.8518519 C37.9259259,45.1591111 36.8628148,46.2222222 35.5555556,46.2222222 C34.2482963,46.2222222 33.1851852,45.1591111 33.1851852,43.8518519 C33.1851852,42.5445926 34.2482963,41.4814815 35.5555556,41.4814815 Z M35.4085926,39.1265185 C35.2888889,39.1300741 35.1739259,39.149037 35.0565926,39.1620741 C33.9401481,35.1454815 30.9617778,31.8257778 27.0198519,30.3478519 L26.2708148,30.066963 L28.0047407,22.2625185 C28.1244444,21.714963 28.6008889,21.3333333 29.1602963,21.3333333 L32.557037,21.3333333 C34.1202963,21.3333333 35.6077037,22.0077037 36.6364444,23.1845926 L40.9256296,28.0877037 L35.4085926,39.1265185 Z M33.1851852,49.7777778 C33.1851852,49.1365926 33.1401481,48.5037037 33.0761481,47.8731852 C33.7991111,48.3211852 34.6441481,48.5925926 35.5555556,48.5925926 C36.8533333,48.5925926 38.029037,48.0663704 38.8859259,47.218963 C39.9371852,48.0912593 41.2645926,48.5925926 42.6666667,48.5925926 L60.4444444,48.5925926 C61.0974815,48.5925926 61.6296296,49.1247407 61.6296296,49.7777778 C61.6296296,50.4308148 61.0974815,50.962963 60.4444444,50.962963 L34.3703704,50.962963 C33.7173333,50.962963 33.1851852,50.4308148 33.1851852,49.7777778 Z M59.2592593,42.6666667 C63.181037,42.6666667 66.3703704,45.856 66.3703704,49.7777778 C66.3703704,53.6995556 63.181037,56.8888889 59.2592593,56.8888889 C56.704,56.8888889 54.3822222,55.4785185 53.1271111,53.3333333 L60.4444444,53.3333333 C62.4047407,53.3333333 64,51.7380741 64,49.7777778 C64,47.8174815 62.4047407,46.2222222 60.4444444,46.2222222 L53.1282963,46.2222222 C54.3822222,44.077037 56.704,42.6666667 59.2592593,42.6666667 Z M42.6666667,46.2222222 C41.6841481,46.2222222 40.7739259,45.8002963 40.1078519,45.1022222 C40.2180741,44.7004444 40.2962963,44.2868148 40.2962963,43.8518519 C40.2962963,42.8503704 39.9798519,41.9235556 39.4477037,41.1567407 C40.0248889,39.9288889 41.2776296,39.1111111 42.6666667,39.1111111 C44.626963,39.1111111 46.2222222,40.7063704 46.2222222,42.6666667 C46.2222222,44.626963 44.626963,46.2222222 42.6666667,46.2222222 Z M71.1111111,30.8148148 L60.4444444,30.8148148 L56.141037,30.8148148 L55.7037037,30.8148148 L55.7037037,30.8314074 C52.2263704,30.9179259 48.9007407,32.0165926 46.061037,34.0444444 L42.2364444,36.7762963 C40.6802963,36.8912593 39.2616296,37.6082963 38.2542222,38.7354074 L44.0071111,27.2296296 C45.8251852,23.5922963 49.4814815,21.3333333 53.5466667,21.3333333 L65.1851852,21.3333333 C68.4527407,21.3333333 71.1111111,23.9917037 71.1111111,27.2592593 L71.1111111,30.8148148 Z" id="Shape" fill="#000000"></path>
                    <polygon id="Path" fill="#000000" points="62.8148148 23.7037037 65.1851852 23.7037037 65.1851852 26.0740741 62.8148148 26.0740741"></polygon>
                    <polygon id="Path" fill="#000000" points="58.0740741 23.7037037 60.4444444 23.7037037 60.4444444 26.0740741 58.0740741 26.0740741"></polygon>
                    <polygon id="Path" fill="#000000" points="53.3333333 23.7037037 55.7037037 23.7037037 55.7037037 26.0740741 53.3333333 26.0740741"></polygon>
                </g>
            </g>
        </g>
    </g>
</svg>