<?xml version="1.0" encoding="UTF-8"?>
<svg width="25px" height="25px" viewBox="0 0 25 25" version="1.1" xmlns="http://www.w3.org/2000/svg" xmlns:xlink="http://www.w3.org/1999/xlink">
    <!-- Generator: Sketch 61.2 (89653) - https://sketch.com -->
    <title>icon</title>
    <desc>Created with Sketch.</desc>
    <g id="Home" stroke="none" stroke-width="1" fill="none" fill-rule="evenodd">
        <g id="video2-dark" transform="translate(-187.000000, -353.000000)" fill="#FFFFFF" fill-rule="nonzero">
            <g id="visualItem" transform="translate(187.000000, 345.000000)">
                <g id="icon" transform="translate(0.000000, 8.000000)">
                    <path d="M12.4995536,0 C5.6071875,0 0,5.6071875 0,12.4995536 C0,19.3919643 5.6071875,24.9991071 12.4995536,24.9991071 C19.3919643,24.9991071 24.9991071,19.3919196 24.9991071,12.4995536 C24.9991071,5.6071875 19.3919643,0 12.4995536,0 Z M12.4995536,22.2669643 C7.11366071,22.2669643 2.73214286,17.8854464 2.73214286,12.4995536 C2.73214286,7.11392857 7.11366071,2.73214286 12.4995536,2.73214286 C17.8854464,2.73214286 22.2669643,7.11392857 22.2669643,12.4995536 C22.2669643,17.8854464 17.8854464,22.2669643 12.4995536,22.2669643 Z" id="Shape"></path>
                    <path d="M13.5815179,12.5145536 L13.5815179,7.27571429 C13.5815179,6.69075893 13.1075,6.21674107 12.5227679,6.21674107 C11.9378571,6.21674107 11.4637946,6.69075893 11.4637946,7.27571429 L11.4637946,12.8528571 C11.4637946,12.8695089 11.4679018,12.8851339 11.4687054,12.9017857 C11.4547768,13.1897321 11.5539732,13.4820982 11.7738839,13.7020536 L15.7177679,17.645625 C16.1314286,18.0592857 16.801875,18.0592857 17.2152232,17.645625 C17.6286161,17.2319643 17.6288839,16.5615179 17.2152232,16.148125 L13.5815179,12.5145536 Z" id="Path"></path>
                </g>
            </g>
        </g>
    </g>
</svg>