<?xml version="1.0" encoding="UTF-8"?>
<svg width="39px" height="25px" viewBox="0 0 39 25" version="1.1" xmlns="http://www.w3.org/2000/svg" xmlns:xlink="http://www.w3.org/1999/xlink">
    <!-- Generator: Sketch 61.2 (89653) - https://sketch.com -->
    <title>icon</title>
    <desc>Created with Sketch.</desc>
    <g id="Home" stroke="none" stroke-width="1" fill="none" fill-rule="evenodd">
        <g id="video2-dark" transform="translate(-20.000000, -353.000000)" fill="#FFFFFF" fill-rule="nonzero">
            <g id="visualItem" transform="translate(20.000000, 345.000000)">
                <g id="icon" transform="translate(-0.000000, 8.000000)">
                    <path d="M38.7762957,11.7409299 C38.4276677,11.2640244 30.1210366,0.0636432927 19.5119665,0.0636432927 C8.90289634,0.0636432927 0.595884146,11.2640244 0.247637195,11.7404726 C-0.0825457317,12.1929116 -0.0825457317,12.8065549 0.247637195,13.2589939 C0.595884146,13.7358994 8.90289634,24.9362805 19.5119665,24.9362805 C30.1210366,24.9362805 38.4276677,13.7358232 38.7762957,13.259375 C39.106936,12.8070122 39.106936,12.1929116 38.7762957,11.7409299 Z M19.5119665,22.3632622 C11.6972561,22.3632622 4.9288872,14.9293445 2.92530488,12.4990854 C4.92629573,10.0666921 11.6804878,2.63666159 19.5119665,2.63666159 C27.3262957,2.63666159 34.0942073,10.0692835 36.098628,12.5008384 C34.0976372,14.9331555 27.3434451,22.3632622 19.5119665,22.3632622 Z" id="Shape"></path>
                    <path d="M19.5119665,4.7808689 C15.2557165,4.7808689 11.7928354,8.24375 11.7928354,12.5 C11.7928354,16.75625 15.2557165,20.2191311 19.5119665,20.2191311 C23.7682165,20.2191311 27.2310976,16.75625 27.2310976,12.5 C27.2310976,8.24375 23.7682165,4.7808689 19.5119665,4.7808689 Z M19.5119665,17.6460366 C16.674314,17.6460366 14.3659299,15.3375762 14.3659299,12.5 C14.3659299,9.66242378 16.6743902,7.35396341 19.5119665,7.35396341 C22.3495427,7.35396341 24.658003,9.66242378 24.658003,12.5 C24.658003,15.3375762 22.3496189,17.6460366 19.5119665,17.6460366 Z" id="Shape"></path>
                </g>
            </g>
        </g>
    </g>
</svg>