<?xml version="1.0" encoding="UTF-8"?>
<svg width="24px" height="22px" viewBox="0 0 24 22" version="1.1" xmlns="http://www.w3.org/2000/svg" xmlns:xlink="http://www.w3.org/1999/xlink">
    <!-- Generator: Sketch 61.2 (89653) - https://sketch.com -->
    <title>Path</title>
    <desc>Created with Sketch.</desc>
    <g id="Specs" stroke="none" stroke-width="1" fill="none" fill-rule="evenodd">
        <g id="Artboard" transform="translate(-878.000000, -330.000000)" fill="#00A650" fill-rule="nonzero">
            <g id="Group" transform="translate(858.000000, 309.000000)">
                <g id="heart" transform="translate(20.000000, 21.000000)">
                    <path d="M11.0722046,21.0036621 C10.1026612,20.1558838 9.1679077,19.3591919 8.34320067,18.6564331 L8.33898928,18.652771 C5.92108153,16.5922852 3.83312991,14.8128662 2.38037109,13.0599975 C0.756408703,11.1004028 0,9.24243164 0,7.21270753 C0,5.24066161 0.676208484,3.42132567 1.90393069,2.08959961 C3.14630128,0.742126453 4.85101317,1.33226763e-15 6.70458984,1.33226763e-15 C8.08996584,1.33226763e-15 9.35870363,0.437988281 10.4754638,1.30169677 C11.0390625,1.73767088 11.5499268,2.27124023 12,2.89361573 C12.4502564,2.27124023 12.9609375,1.73767088 13.5247192,1.30169677 C14.6414795,0.437988281 15.9102173,1.33226763e-15 17.2955932,1.33226763e-15 C19.1489868,1.33226763e-15 20.8538818,0.742126453 22.0962525,2.08959961 C23.3239746,3.42132567 24,5.24066161 24,7.21270753 C24,9.24243164 23.2437744,11.1004028 21.619812,13.0598145 C20.1670532,14.8128662 18.0792847,16.5921021 15.6617432,18.6524048 C14.8355713,19.3562622 13.899353,20.1542358 12.9276123,21.0040283 C12.6710815,21.2285156 12.3414917,21.3522949 12,21.3522949 C11.6583252,21.3522949 11.3289185,21.2285156 11.0722046,21.0036621 Z" id="Shape"></path>
                </g>
            </g>
        </g>
    </g>
</svg>