<?xml version="1.0" encoding="UTF-8"?>
<svg width="40px" height="36px" viewBox="0 0 40 36" version="1.1" xmlns="http://www.w3.org/2000/svg" xmlns:xlink="http://www.w3.org/1999/xlink">
    <!-- Generator: Sketch 61.2 (89653) - https://sketch.com -->
    <title>heart</title>
    <desc>Created with Sketch.</desc>
    <g id="Specs" stroke="none" stroke-width="1" fill="none" fill-rule="evenodd">
        <g id="Artboard" transform="translate(-881.000000, -238.000000)" fill="#3483FA" fill-rule="nonzero">
            <g id="heart" transform="translate(881.000000, 238.000000)">
                <path d="M20,35.5871582 C19.430542,35.5871582 18.8815308,35.3808594 18.4536743,35.0061035 C16.8377686,33.5931397 15.2798462,32.2653198 13.9053345,31.0940552 L13.8983155,31.0879516 C9.86846922,27.6538086 6.38854984,24.6881103 3.96728516,21.7666626 C1.26068117,18.5006714 0,15.4040527 0,12.0211792 C0,8.73443602 1.12701414,5.70220945 3.17321781,3.48266602 C5.24383547,1.23687742 8.08502195,2.22044605e-15 11.1743164,2.22044605e-15 C13.4832764,2.22044605e-15 15.5978394,0.729980469 17.4591064,2.16949461 C18.3984375,2.89611813 19.249878,3.78540039 20,4.82269289 C20.7504273,3.78540039 21.6015625,2.89611813 22.5411987,2.16949461 C24.4024658,0.729980469 26.5170288,2.22044605e-15 28.8259887,2.22044605e-15 C31.914978,2.22044605e-15 34.7564697,1.23687742 36.8270874,3.48266602 C38.873291,5.70220945 40,8.73443602 40,12.0211792 C40,15.4040527 38.7396241,18.5006714 36.03302,21.7663574 C33.6117554,24.6881103 30.1321411,27.6535034 26.1029053,31.0873413 C24.7259522,32.260437 23.1655884,33.590393 21.5460205,35.0067139 C21.1184692,35.3808594 20.5691528,35.5871582 20,35.5871582 L20,35.5871582 Z M11.1743164,2.34313969 C8.74725344,2.34313969 6.51763914,3.31176758 4.89562984,5.07080078 C3.24951172,6.8563843 2.34283445,9.32464602 2.34283445,12.0211792 C2.34283445,14.866333 3.40026859,17.4108887 5.77117922,20.2716064 C8.06274414,23.0368042 11.4712524,25.9414673 15.4177856,29.3048095 L15.4251098,29.3109131 C16.8048095,30.4867554 18.3688355,31.8197632 19.996643,33.243103 C21.6342163,31.8170166 23.2006836,30.4818726 24.5831298,29.3041992 C28.5293579,25.940857 31.937561,23.0368042 34.2291259,20.2716064 C36.5997314,17.4108887 37.6571655,14.866333 37.6571655,12.0211792 C37.6571655,9.32464602 36.7504883,6.8563843 35.1043702,5.07080078 C33.482666,3.31176758 31.2527466,2.34313969 28.8259887,2.34313969 C27.0480347,2.34313969 25.4156494,2.90832516 23.9743042,4.02282719 C22.6898194,5.01647953 21.7950439,6.27258297 21.2704468,7.15148922 C21.0006714,7.60345461 20.5258179,7.87323 20,7.87323 C19.4741821,7.87323 18.9993286,7.60345461 18.7295532,7.15148922 C18.2052612,6.27258297 17.3104859,5.01647953 16.0256958,4.02282719 C14.5843506,2.90832516 12.9519653,2.34313969 11.1743164,2.34313969 Z" id="Shape"></path>
            </g>
        </g>
    </g>
</svg>