<?xml version="1.0" encoding="UTF-8"?>
<svg width="64px" height="64px" viewBox="0 0 64 64" version="1.1" xmlns="http://www.w3.org/2000/svg" xmlns:xlink="http://www.w3.org/1999/xlink">
    <!-- Generator: Sketch 61.2 (89653) - https://sketch.com -->
    <title>home</title>
    <desc>Created with Sketch.</desc>
    <g id="Specs" stroke="none" stroke-width="1" fill="none" fill-rule="evenodd">
        <g id="/-(view-2)" transform="translate(-308.000000, -575.000000)" fill-rule="nonzero">
            <g id="Group-3-Copy-7" transform="translate(235.000000, 542.000000)">
                <g id="home" transform="translate(73.000000, 33.000000)">
                    <polygon id="Path" fill="#FDD835" points="31.9886452 6.9636129 29.7785806 5.72593548 27.5664516 6.9636129 25.3553548 5.72593548 23.1452903 6.9636129 20.9352258 5.72593548 18.7251613 6.9636129 16.0113548 5.44206452 17.0209032 3.64180645 18.7251613 4.59664516 20.9352258 3.35896774 23.1452903 4.59664516 25.3553548 3.35896774 27.5664516 4.59664516 29.7785806 3.35896774 31.9886452 4.59664516 34.1976774 3.35896774 36.4087742 4.59767742 38.6209032 3.36 40.8350968 4.59767742 43.0482581 3.36 45.2665806 4.59767742 46.9811613 3.64077419 47.9865806 5.44309677 45.2665806 6.96258065 43.0482581 5.72490323 40.8350968 6.96258065 38.6209032 5.72490323 36.4087742 6.96258065 34.1976774 5.72593548"></polygon>
                    <polygon id="Path" fill="#FDD835" points="16.0691613 12.2487742 12.9145806 10.4794839 13.924129 8.67922581 16.0691613 9.88180645 18.7220645 8.3963871 21.3739355 9.88180645 24.0268387 8.3963871 26.6797419 9.88180645 29.3336774 8.3963871 31.9876129 9.88180645 34.6374194 8.3963871 37.2903226 9.88180645 39.9452903 8.39741935 42.6023226 9.88283871 45.2593548 8.39741935 47.9194839 9.88283871 50.0779355 8.67819355 51.0833548 10.4805161 47.9194839 12.2477419 45.2593548 10.7623226 42.6023226 12.2477419 39.9452903 10.7623226 37.2903226 12.2487742 34.6374194 10.7633548 31.9876129 12.2487742 29.3336774 10.7633548 26.6797419 12.2487742 24.0268387 10.7633548 21.3739355 12.2487742 18.7220645 10.7633548"></polygon>
                    <g id="Group" fill="#000000">
                        <path d="M57.8064516,40.2580645 L62.9089032,40.2580645 L56.2725161,30.9677419 L54.7096774,30.9677419 L54.7096774,25.8064516 L49.5483871,25.8064516 L49.5483871,15.483871 L54.3731613,15.483871 L46.0366452,0 L17.9633548,0 L9.62683871,15.483871 L14.4516129,15.483871 L14.4516129,25.8064516 L9.29032258,25.8064516 L9.29032258,30.9677419 L7.72645161,30.9677419 L1.09006452,40.2580645 L6.19354839,40.2580645 L6.19354839,61.9354839 L4.12903226,61.9354839 L4.12903226,64 L59.8709677,64 L59.8709677,61.9354839 L57.8064516,61.9354839 L57.8064516,40.2580645 Z M52.6451613,30.9677419 L50.5806452,30.9677419 L50.5806452,27.8709677 L52.6451613,27.8709677 L52.6451613,30.9677419 Z M46.4516129,27.8709677 L48.516129,27.8709677 L48.516129,30.9677419 L46.4516129,30.9677419 L46.4516129,27.8709677 Z M19.1979355,2.06451613 L44.8030968,2.06451613 L50.9181935,13.4193548 L13.0828387,13.4193548 L19.1979355,2.06451613 Z M17.5483871,30.9677419 L15.483871,30.9677419 L15.483871,27.8709677 L17.5483871,27.8709677 L17.5483871,30.9677419 Z M11.3548387,27.8709677 L13.4193548,27.8709677 L13.4193548,30.9677419 L11.3548387,30.9677419 L11.3548387,27.8709677 Z M8.25806452,40.2580645 L12.3870968,40.2580645 L12.3870968,38.1935484 L5.10245161,38.1935484 L8.78864516,33.0322581 L18.5806452,33.0322581 L18.5806452,32 L19.6129032,32 L19.6129032,27.8709677 L25.8064516,27.8709677 L25.8064516,25.8064516 L16.516129,25.8064516 L16.516129,15.483871 L47.483871,15.483871 L47.483871,25.8064516 L38.1935484,25.8064516 L38.1935484,27.8709677 L44.3870968,27.8709677 L44.3870968,32 L45.4193548,32 L45.4193548,33.0322581 L55.2103226,33.0322581 L58.8965161,38.1935484 L51.6129032,38.1935484 L51.6129032,40.2580645 L55.7419355,40.2580645 L55.7419355,61.9354839 L53.6774194,61.9354839 L53.6774194,58.8387097 L51.6129032,58.8387097 L51.6129032,61.9354839 L43.3548387,61.9354839 L43.3548387,58.8387097 L41.2903226,58.8387097 L41.2903226,61.9354839 L38.1935484,61.9354839 L38.1935484,45.4193548 L25.8064516,45.4193548 L25.8064516,61.9354839 L22.7096774,61.9354839 L22.7096774,58.8387097 L20.6451613,58.8387097 L20.6451613,61.9354839 L12.3870968,61.9354839 L12.3870968,58.8387097 L10.3225806,58.8387097 L10.3225806,61.9354839 L8.25806452,61.9354839 L8.25806452,40.2580645 Z M36.1290323,61.9354839 L27.8709677,61.9354839 L27.8709677,47.483871 L36.1290323,47.483871 L36.1290323,61.9354839 Z" id="Shape"></path>
                        <path d="M32,43.3548387 C34.8459355,43.3548387 37.1612903,41.0394839 37.1612903,38.1935484 C37.1612903,35.3476129 34.8459355,33.0322581 32,33.0322581 C29.1540645,33.0322581 26.8387097,35.3476129 26.8387097,38.1935484 C26.8387097,41.0394839 29.1540645,43.3548387 32,43.3548387 Z M29.0931613,39.2258065 L30.9677419,39.2258065 L30.9677419,41.1003871 C30.0934194,40.7886452 29.4049032,40.100129 29.0931613,39.2258065 Z M33.0322581,41.1003871 L33.0322581,39.2258065 L34.9068387,39.2258065 C34.5950968,40.100129 33.9065806,40.7886452 33.0322581,41.1003871 Z M34.9068387,37.1612903 L33.0322581,37.1612903 L33.0322581,35.2867097 C33.9065806,35.5984516 34.5950968,36.2869677 34.9068387,37.1612903 Z M30.9677419,35.2867097 L30.9677419,37.1612903 L29.0931613,37.1612903 C29.4049032,36.2869677 30.0934194,35.5984516 30.9677419,35.2867097 Z" id="Shape"></path>
                        <rect id="Rectangle" x="15.483871" y="39.2258065" width="2.06451613" height="13.4193548"></rect>
                        <rect id="Rectangle" x="46.4516129" y="39.2258065" width="2.06451613" height="13.4193548"></rect>
                        <rect id="Rectangle" x="29.9354839" y="53.6774194" width="2.06451613" height="2.06451613"></rect>
                        <path d="M45.4193548,17.5483871 L39.2258065,17.5483871 L39.2258065,23.7419355 L45.4193548,23.7419355 L45.4193548,17.5483871 Z M43.3548387,21.6774194 L41.2903226,21.6774194 L41.2903226,19.6129032 L43.3548387,19.6129032 L43.3548387,21.6774194 Z" id="Shape"></path>
                        <path d="M18.5806452,23.7419355 L24.7741935,23.7419355 L24.7741935,17.5483871 L18.5806452,17.5483871 L18.5806452,23.7419355 Z M20.6451613,19.6129032 L22.7096774,19.6129032 L22.7096774,21.6774194 L20.6451613,21.6774194 L20.6451613,19.6129032 Z" id="Shape"></path>
                        <rect id="Rectangle" x="61.9354839" y="61.9354839" width="2.06451613" height="2.06451613"></rect>
                        <rect id="Rectangle" x="0" y="61.9354839" width="2.06451613" height="2.06451613"></rect>
                    </g>
                    <path d="M20.6451613,59.8709677 L12.3870968,59.8709677 C10.6797419,59.8709677 9.29032258,58.4815484 9.29032258,56.7741935 C9.29032258,55.3156129 10.304,54.0882581 11.6645161,53.7620645 C12.2332903,52.4820645 13.5205161,51.6129032 14.9677419,51.6129032 C15.5076129,51.6129032 16.0330323,51.7336774 16.516129,51.968 C16.9992258,51.7336774 17.5246452,51.6129032 18.0645161,51.6129032 C19.5117419,51.6129032 20.7989677,52.4820645 21.3677419,53.7620645 C22.7282581,54.0882581 23.7419355,55.3156129 23.7419355,56.7741935 C23.7419355,58.4815484 22.3525161,59.8709677 20.6451613,59.8709677 Z" id="Path" fill="#FDD835"></path>
                    <path d="M51.6129032,59.8709677 L43.3548387,59.8709677 C41.6474839,59.8709677 40.2580645,58.4815484 40.2580645,56.7741935 C40.2580645,55.3156129 41.2717419,54.0882581 42.6322581,53.7620645 C43.2010323,52.4820645 44.4882581,51.6129032 45.9354839,51.6129032 C46.4753548,51.6129032 47.0007742,51.7336774 47.483871,51.968 C47.9669677,51.7336774 48.4923871,51.6129032 49.0322581,51.6129032 C50.4794839,51.6129032 51.7667097,52.4820645 52.3354839,53.7620645 C53.696,54.0882581 54.7096774,55.3156129 54.7096774,56.7741935 C54.7096774,58.4815484 53.3202581,59.8709677 51.6129032,59.8709677 Z" id="Path" fill="#FDD835"></path>
                    <path d="M49.5329032,41.2903226 L49.2098065,41.2903226 C48.5409032,41.2903226 47.8771613,41.0683871 47.3414194,40.6668387 L32,29.1612903 L16.6575484,40.6668387 C16.1228387,41.0683871 15.460129,41.2903226 14.7901935,41.2903226 L14.4670968,41.2903226 C12.7514839,41.2903226 11.3548387,39.8936774 11.3548387,38.1780645 C11.3548387,37.2242581 11.8049032,36.3065806 12.5563871,35.7212903 L29.5194839,22.5290323 C30.9305806,21.4307097 33.0694194,21.4307097 34.4815484,22.5290323 L51.4456774,35.7223226 C52.1950968,36.3065806 52.6451613,37.2252903 52.6451613,38.1780645 C52.6451613,39.8936774 51.2485161,41.2903226 49.5329032,41.2903226 Z" id="Path" fill="#FDD835"></path>
                </g>
            </g>
        </g>
    </g>
</svg>