<?xml version="1.0" encoding="UTF-8"?>
<svg width="20px" height="20px" viewBox="0 0 20 20" version="1.1" xmlns="http://www.w3.org/2000/svg" xmlns:xlink="http://www.w3.org/1999/xlink">
    <!-- Generator: Sketch 61.2 (89653) - https://sketch.com -->
    <title>share</title>
    <desc>Created with Sketch.</desc>
    <g id="Specs" stroke="none" stroke-width="1" fill="none" fill-rule="evenodd">
        <g id="/-(view-2)" transform="translate(-503.000000, -370.000000)" fill="#3483FA">
            <g id="share" transform="translate(503.000000, 370.000000)">
                <path d="M15.8888889,6.11111111 C17.2389183,6.11111111 18.3333333,5.01669606 18.3333333,3.66666667 C18.3333333,2.31663728 17.2389183,1.22222222 15.8888889,1.22222222 C14.5388595,1.22222222 13.4444444,2.31663728 13.4444444,3.66666667 C13.4444444,5.01669606 14.5388595,6.11111111 15.8888889,6.11111111 Z M15.8888889,7.33333333 C14.578915,7.33333333 13.3684493,6.63447064 12.7134624,5.5 C12.0584754,4.36552939 12.0584754,2.96780394 12.7134624,1.83333332 C13.3684493,0.698862695 14.578915,0 15.8888889,0 C17.913933,0 19.5555555,1.64162261 19.5555555,3.66666667 C19.5555555,5.69171073 17.913933,7.33333333 15.8888889,7.33333333 L15.8888889,7.33333333 Z M3.66666667,12.2222222 C5.01669606,12.2222222 6.11111111,11.1278072 6.11111111,9.77777778 C6.11111111,8.42774839 5.01669606,7.33333333 3.66666667,7.33333333 C2.31663728,7.33333333 1.22222222,8.42774839 1.22222222,9.77777778 C1.22222222,11.1278072 2.31663728,12.2222222 3.66666667,12.2222222 Z M3.66666667,13.4444444 C1.64162258,13.4444444 0,11.8028219 0,9.77777778 C0,7.7527337 1.64162258,6.11111111 3.66666667,6.11111111 C5.69171075,6.11111111 7.33333333,7.7527337 7.33333333,9.77777778 C7.33333333,11.8028219 5.69171075,13.4444444 3.66666667,13.4444444 Z M15.8888889,18.3333333 C17.2389183,18.3333333 18.3333333,17.2389183 18.3333333,15.8888889 C18.3333333,14.5388595 17.2389183,13.4444444 15.8888889,13.4444444 C14.5388595,13.4444444 13.4444444,14.5388595 13.4444444,15.8888889 C13.4444444,17.2389183 14.5388595,18.3333333 15.8888889,18.3333333 Z M15.8888889,19.5555556 C14.578915,19.5555556 13.3684493,18.8566929 12.7134623,17.7222222 C12.0584754,16.5877516 12.0584754,15.1900262 12.7134623,14.0555555 C13.3684493,12.9210849 14.578915,12.2222222 15.8888889,12.2222222 C17.913933,12.2222222 19.5555556,13.8638448 19.5555556,15.8888889 C19.5555556,17.913933 17.913933,19.5555556 15.8888889,19.5555556 Z" id="Shape"></path>
                <path d="M7.00333333,8.85377778 L13.1144444,5.676 L13.6571111,5.39366667 L13.0936667,4.30955556 L12.551,4.59066667 L6.43988889,7.76844444 L5.89844444,8.05077778 L6.46188889,9.13488889 L7.00333333,8.85377778 Z M6.44111111,11.7871111 L12.5522222,14.9648889 L13.0936667,15.246 L13.6571111,14.1618889 L13.1156667,13.8807778 L7.00455556,10.703 L6.46188889,10.4206667 L5.89844444,11.5047778 L6.44111111,11.7871111 Z" id="Shape"></path>
            </g>
        </g>
    </g>
</svg>