<svg viewBox="0 0 21 17" id="ui-icon--free-shipping" xmlns="http://www.w3.org/2000/svg"     fill='#00a650' stroke='#00a650'>
<g stroke-width="1.5" fill="none" fill-rule="evenodd">
<path d="M11.218 10.191V3.082C11.218 1.932 10.42 1 9.435 1H2.779C1.796 1 1 1.93 1 3.076v8.26c0 1.195.83 2.164 1.853 2.164h16.48V8.688L15.54 3.874h-3.566">
</path>
<path d="M8.5 13.917a2.084 2.084 0 1 1-4.167 0 2.084 2.084 0 0 1 4.167 0zm7.5 0a2.084 2.084 0 1 1-4.167 0 2.084 2.084 0 0 1 4.167 0z" fill="#FFF">
</path>
</g>
</svg>