<?xml version="1.0" encoding="UTF-8"?>
<svg width="56px" height="64px" viewBox="0 0 56 64" version="1.1" xmlns="http://www.w3.org/2000/svg" xmlns:xlink="http://www.w3.org/1999/xlink">
    <!-- Generator: Sketch 61.2 (89653) - https://sketch.com -->
    <title>tuxedo</title>
    <desc>Created with Sketch.</desc>
    <g id="Specs" stroke="none" stroke-width="1" fill="none" fill-rule="evenodd">
        <g id="/-(view-2)" transform="translate(-1042.000000, -575.000000)" fill-rule="nonzero">
            <g id="Group-3-Copy-8" transform="translate(965.000000, 542.000000)">
                <g id="tuxedo" transform="translate(77.000000, 33.000000)">
                    <g id="Group" transform="translate(1.032258, 6.193548)" fill="#FDD835">
                        <polygon id="Path" points="19.6129032 15.483871 15.483871 0 9.32106852 2.31451613 12.515121 15.0887097 15.483871 17.0685484 15.483871 22.1365928 24.7741935 29.9354839 26.8387097 26.8387097"></polygon>
                        <polygon id="Path" points="0 40.2580645 8.25806452 40.2580645 8.25806452 45.4193548 0 45.4193548"></polygon>
                        <polygon id="Path" points="45.4193548 40.2580645 53.6774194 40.2580645 53.6774194 45.4193548 45.4193548 45.4193548"></polygon>
                        <polygon id="Path" points="38.1935484 0 34.0645161 15.483871 24.7741935 29.9354839 24.7741935 33.0322581 38.1935484 22.1617943 38.1935484 17.0685484 41.1622983 15.0887097 44.3563508 2.31451613"></polygon>
                    </g>
                    <path d="M55.7419355,15.8185484 C55.7419355,12.703125 53.7570565,9.94808465 50.8014114,8.96421368 L40.2293347,5.44002013 L40.2580645,0 L37.9954637,0 L27.8709677,4.0493951 L17.7464717,0 L15.483871,0 L15.483871,5.45010077 L4.94153226,8.96522181 C1.98487897,9.94909277 -3.66731735e-15,12.704133 -3.66731735e-15,15.8185484 L-3.66731735e-15,52.6451613 L9.57812503,52.6451613 L8.52772181,55.7978831 C8.34879032,56.3336694 8.25806452,56.8931452 8.25806452,57.4596774 C8.25806452,58.7167339 9.05191535,59.8503025 10.233871,60.2797379 L19.2575605,63.5614919 C20.0569556,63.8523186 20.8941533,64 21.7454637,64 C24.2454637,64 26.5453628,62.7127017 27.8709677,60.6491935 C29.1955645,62.7127017 31.4954637,64 33.9964717,64 C34.8487903,64 35.6859879,63.8523186 36.484375,63.5614919 L45.5080645,60.2797379 C46.6900201,59.8503025 47.483871,58.7167339 47.483871,57.4596774 C47.483871,56.8931452 47.3931452,56.3336694 47.2142137,55.7978831 L46.1638105,52.6451613 L55.7419355,52.6451613 L55.7419355,15.8185484 Z M27.8709677,31.0080645 L24.7741935,26.1905241 L24.7741935,14.4163306 L27.8709677,12.5584677 L30.9677419,14.4163306 L30.9677419,26.1915323 L27.8709677,31.0080645 Z M22.2615928,15.483871 C22.4133065,15.483871 22.5609879,15.4485886 22.7096774,15.4228831 L22.7096774,22.9803427 L21.5957662,21.2469757 L17.7353831,7.73487897 L19.6542338,8.43245961 C19.6335685,8.56653226 19.6129032,8.7021169 19.6129032,8.84223794 L19.6129032,12.8341734 C19.6129032,14.295867 20.8009072,15.483871 22.2615928,15.483871 Z M22.561996,13.3356854 C22.1935484,13.5584677 21.6774194,13.2636089 21.6774194,12.8351814 L21.6774194,8.84223794 C21.6774194,8.52016129 21.9395161,8.25806452 22.2615928,8.25806452 C22.3669355,8.25806452 22.4712702,8.28679432 22.561996,8.34173394 L26.7253025,10.8387097 L22.561996,13.3356854 Z M29.016633,10.8387097 L33.1799395,8.34173394 C33.5493951,8.12197574 34.0645161,8.41481858 34.0645161,8.84223794 L34.0645161,12.8341734 C34.0645161,13.2626008 33.5493951,13.5554436 33.1799395,13.3346774 L29.016633,10.8387097 Z M33.0322581,15.4228831 C33.1809476,15.4485886 33.3276209,15.483871 33.4803427,15.483871 C34.9410283,15.483871 36.1290323,14.295867 36.1290323,12.8351814 L36.1290323,8.84223794 C36.1290323,8.7021169 36.108367,8.56653226 36.0877017,8.43145161 L38.0065524,7.73387097 L34.1461693,21.2459677 L33.0322581,22.9803427 L33.0322581,15.4228831 Z M38.1935484,2.14415329 L38.1935484,5.47076619 L34.9596774,6.64667342 C34.5372983,6.3608871 34.0272178,6.19354839 33.4803427,6.19354839 C33.000504,6.19354839 32.5287298,6.32459677 32.1174395,6.57157265 L28.9032258,8.499496 L28.9032258,5.85987897 L38.1935484,2.14415329 Z M26.8387097,5.85987897 L26.8387097,8.499496 L23.625504,6.57157265 C23.2132057,6.32459677 22.7429435,6.19354839 22.2615928,6.19354839 C21.7137097,6.19354839 21.2046372,6.3608871 20.7812501,6.64667342 L17.5483871,5.47076619 L17.5483871,2.14415329 L26.8387097,5.85987897 Z M2.06451613,50.5806452 L2.06451613,15.8185484 C2.06451613,13.5937499 3.48286297,11.625504 5.59374994,10.9223791 L5.68346774,10.892137 L8.25806452,17.8805444 L8.25806452,50.5806452 L2.06451613,50.5806452 Z M12.3870968,37.0105846 C12.3870968,41.5524194 11.686996,46.0408266 10.3225806,50.3669355 L10.3225806,23.6325605 C11.6915323,27.9627017 12.3870968,32.4521169 12.3870968,37.0105846 Z M26.5126008,58.8377017 C25.6764114,60.7192541 23.8049395,61.9354839 21.7454637,61.9354839 C21.1355846,61.9354839 20.5357863,61.829133 19.9627017,61.6214717 L10.9390121,58.3402218 C10.5705645,58.2061492 10.3225806,57.8518145 10.3225806,57.4596774 C10.3225806,57.1159275 10.3775201,56.7762097 10.4868952,56.4501008 L12.0660283,51.7111895 C13.6496975,46.9616935 14.4516129,42.016129 14.4516129,37.0105846 C14.4516129,31.5095766 13.4873992,26.1028226 11.5851814,20.9395161 L7.64264116,10.2399194 L15.5871975,7.59122981 L19.6522178,21.9611895 L22.7096774,26.75 L22.7096774,26.8387097 L22.766633,26.8387097 L26.6446573,32.9158266 L24.7741935,35.8256049 L24.7741935,47.5715726 C24.7741935,51.2620968 25.4430444,54.8543347 26.7631048,58.2741935 L26.5126008,58.8377017 Z M44.8019154,58.3412298 L35.7772178,61.6224799 C35.2061492,61.829133 34.6063508,61.9354839 33.9964717,61.9354839 C31.936996,61.9354839 30.0665323,60.7192541 29.2293347,58.8377017 C27.6426412,55.2691533 26.8387097,51.4778226 26.8387097,47.5715726 L26.8387097,36.4324596 L33.0065524,26.8387097 L33.0322581,26.8387097 L33.0322581,26.7983871 L35.9647177,22.2358871 L40.1910283,7.60282258 L48.0982863,10.2389112 L44.1557459,20.9385081 C42.2545363,26.1018145 41.2903226,31.5085685 41.2903226,37.0105846 C41.2903226,42.017137 42.0922379,46.9627017 43.6759072,51.7121975 L45.2550403,56.4511089 C45.3644154,56.7762097 45.4193548,57.1159275 45.4193548,57.4596774 C45.4193548,57.8518145 45.171371,58.2061492 44.8019154,58.3412298 L44.8019154,58.3412298 Z M45.4193548,23.6325605 L45.4193548,50.3659275 C44.0549395,46.0398186 43.3548387,41.5504032 43.3548387,37.0095766 C43.3548387,32.4521169 44.0504032,27.9627017 45.4193548,23.6325605 L45.4193548,23.6325605 Z M53.6774194,50.5806452 L47.483871,50.5806452 L47.483871,17.8805444 L50.0584677,10.892137 L50.1481855,10.9223791 C52.2590725,11.6265121 53.6774194,13.5937499 53.6774194,15.8185484 L53.6774194,50.5806452 Z" id="Shape" fill="#000000"></path>
                    <polygon id="Path" fill="#000000" points="26.8387097 16.516129 28.9032258 16.516129 28.9032258 18.5806452 26.8387097 18.5806452"></polygon>
                    <polygon id="Path" fill="#000000" points="26.8387097 23.7419355 28.9032258 23.7419355 28.9032258 25.8064516 26.8387097 25.8064516"></polygon>
                    <polygon id="Path" fill="#000000" points="29.9354839 41.2903226 32 41.2903226 32 43.3548387 29.9354839 43.3548387"></polygon>
                    <polygon id="Path" fill="#000000" points="29.9354839 48.516129 32 48.516129 32 50.5806452 29.9354839 50.5806452"></polygon>
                </g>
            </g>
        </g>
    </g>
</svg>