<?xml version="1.0" encoding="UTF-8"?>
<svg width="65px" height="64px" viewBox="0 0 65 64" version="1.1" xmlns="http://www.w3.org/2000/svg" xmlns:xlink="http://www.w3.org/1999/xlink">
    <!-- Generator: Sketch 61.2 (89653) - https://sketch.com -->
    <title>carpenter</title>
    <desc>Created with Sketch.</desc>
    <g id="Specs" stroke="none" stroke-width="1" fill="none" fill-rule="evenodd">
        <g id="/-(view-2)" transform="translate(-551.000000, -575.000000)" fill-rule="nonzero">
            <g id="Group-3-Copy-9" transform="translate(478.000000, 542.000000)">
                <g id="carpenter" transform="translate(73.000000, 33.000000)">
                    <polygon id="Path" fill="#FDD835" points="50.5806452 21.6774194 34.5806452 43.0110968 34.5806452 55.7419355 63.483871 55.7419355 63.483871 21.6774194"></polygon>
                    <path d="M46.9677419,10.3225806 C45.2603871,10.3225806 43.8709677,8.93316129 43.8709677,7.22580645 C43.8709677,5.51845161 45.2603871,4.12903226 46.9677419,4.12903226 C48.6750968,4.12903226 50.0645161,5.51845161 50.0645161,7.22580645 C50.0645161,8.93316129 48.6750968,10.3225806 46.9677419,10.3225806 Z" id="Path" fill="#FDD835"></path>
                    <g id="Group" fill="#000000">
                        <path d="M46.9677419,57.8064516 C45.6237419,57.8064516 44.4882581,56.9403871 44.0609032,55.7419355 L41.9107097,55.7419355 C42.3907097,58.0944516 44.4748387,59.8709677 46.9677419,59.8709677 C49.4606452,59.8709677 51.5447742,58.0944516 52.0247742,55.7419355 L49.8745806,55.7419355 C49.4472258,56.9403871 48.3117419,57.8064516 46.9677419,57.8064516 Z" id="Path"></path>
                        <path d="M52.6451613,20.6451613 L59.6851613,11.2578065 L49.4740645,1.04670968 C48.1496774,-0.276645161 45.851871,-0.310709677 44.4913548,0.974451613 L13.5287742,30.1677419 C10.8655484,30.6580645 8.41393548,31.931871 6.45883871,33.8869677 L0.0887741935,40.2580645 L14.9677419,55.1370323 L24.8629677,45.2418065 C25.0064516,45.0983226 25.1375484,44.9455484 25.2696774,44.7938065 L30.564129,50.0882581 L33.5483871,46.107871 L33.5483871,64 L64.516129,64 L64.516129,20.6451613 L52.6451613,20.6451613 Z M33.4369032,42.816 L31.8141935,41.1932903 L33.659871,38.7323871 L35.2825806,40.3550968 L33.4369032,42.816 Z M36.5336774,38.6869677 L34.9109677,37.0642581 L36.7566452,34.6033548 L38.3793548,36.2260645 L36.5336774,38.6869677 Z M39.6304516,34.5579355 L38.0077419,32.9352258 L39.8534194,30.4743226 L41.476129,32.0970323 L39.6304516,34.5579355 Z M42.7272258,30.4289032 L41.1045161,28.8061935 L42.9501935,26.3452903 L44.5729032,27.968 L42.7272258,30.4289032 Z M45.824,26.299871 L44.2012903,24.6771613 L46.0469677,22.2162581 L47.6696774,23.8389677 L45.824,26.299871 Z M48.9207742,22.1708387 L47.2980645,20.548129 L49.1437419,18.0872258 L50.7664516,19.7099355 L48.9207742,22.1708387 Z M52.2405161,13.9581935 L53.8632258,15.5809032 L52.0175484,18.0418065 L50.3948387,16.4190968 L52.2405161,13.9581935 Z M55.1143226,13.9127742 L53.4916129,12.2900645 L55.3372903,9.82916129 L56.96,11.451871 L55.1143226,13.9127742 Z M14.9677419,46.0242581 L9.20154839,40.2580645 L11.4436129,38.016 C12.6606452,36.7989677 14.2781935,36.1290323 16,36.1290323 C17.7218065,36.1290323 19.3393548,36.7989677 20.5563871,38.016 L20.7329032,38.1935484 C21.0095484,38.4701935 21.1612903,38.8356129 21.1612903,39.2258065 C21.1612903,39.616 21.0095484,39.9814194 20.7339355,40.2580645 L14.9677419,46.0242581 Z M7.74193548,41.7176774 L13.508129,47.483871 L11.8709677,49.1210323 L6.10477419,43.3548387 L7.74193548,41.7176774 Z M14.9677419,52.2178065 L13.3305806,50.5806452 L22.1935484,41.7176774 C22.8593548,41.0508387 23.2258065,40.1661935 23.2258065,39.2258065 C23.2258065,38.2854194 22.8593548,37.3997419 22.1935484,36.7339355 L22.016,36.5563871 C20.4098065,34.9491613 18.2730323,34.0645161 16,34.0645161 C13.7269677,34.0645161 11.5901935,34.9491613 9.984,36.5563871 L4.64516129,41.8952258 L3.008,40.2580645 L7.91845161,35.3465806 C10.0769032,33.188129 12.9465806,32 16,32 L16.9589677,32 C19.3940645,32 21.6825806,32.9476129 23.4033548,34.6694194 C24.6203871,35.8874839 25.2903226,37.5050323 25.2903226,39.2258065 C25.2903226,40.9465806 24.6203871,42.564129 23.4033548,43.7821935 L14.9677419,52.2178065 Z M24.8629677,33.2098065 C22.752,31.0988387 19.9452903,29.9354839 16.9589677,29.9354839 L16.7845161,29.9354839 L45.9086452,2.4763871 C46.4846452,1.93341935 47.4570323,1.94787097 48.0165161,2.50632258 L53.8642581,8.35406452 L27.2433548,43.8482581 L26.4433548,43.0482581 C27.0348387,41.8766452 27.3548387,40.5770323 27.3548387,39.2258065 C27.3548387,36.9538065 26.4701935,34.8170323 24.8629677,33.2098065 Z M30.340129,46.9450323 L28.7174194,45.3223226 L30.5630968,42.8614194 L32.1858065,44.484129 L30.340129,46.9450323 Z M53.3512258,61.9354839 C53.7785806,60.7370323 54.9140645,59.8709677 56.2580645,59.8709677 C57.6020645,59.8709677 58.7375484,60.7370323 59.1649032,61.9354839 L53.3512258,61.9354839 Z M62.4516129,61.9354839 L61.3150968,61.9354839 C60.8350968,59.5829677 58.7509677,57.8064516 56.2580645,57.8064516 C53.7651613,57.8064516 51.6810323,59.5829677 51.2010323,61.9354839 L35.6129032,61.9354839 L35.6129032,60.8092903 C38.1997419,60.3716129 40.2436129,58.3298065 40.6812903,55.7419355 L38.5630968,55.7419355 C38.1873548,57.1860645 37.0529032,58.3153548 35.6129032,58.692129 L35.6129032,43.3548387 L51.0967742,22.7096774 L62.4516129,22.7096774 L62.4516129,61.9354839 Z" id="Shape"></path>
                        <polygon id="Path" points="40.7741935 58.8387097 42.8387097 58.8387097 42.8387097 60.9032258 40.7741935 60.9032258"></polygon>
                        <polygon id="Path" transform="translate(30.745575, 21.158062) rotate(-43.298645) translate(-30.745575, -21.158062) " points="25.4563001 20.1255051 36.0348504 20.1255051 36.0348504 22.1906198 25.4563001 22.1906198"></polygon>
                        <polygon id="Path" transform="translate(23.610455, 27.885047) rotate(-43.298645) translate(-23.610455, -27.885047) " points="22.1055023 26.8524893 25.1154071 26.8524893 25.1154071 28.9176041 22.1055023 28.9176041"></polygon>
                        <path d="M51.0967742,38.1935484 C50.528,38.1935484 50.0645161,37.7310968 50.0645161,37.1612903 L50.0645161,27.8709677 L48,27.8709677 L48,37.1612903 C48,38.8686452 49.3894194,40.2580645 51.0967742,40.2580645 C52.804129,40.2580645 54.1935484,38.8686452 54.1935484,37.1612903 L54.1935484,34.0645161 L52.1290323,34.0645161 L52.1290323,37.1612903 C52.1290323,37.7310968 51.6655484,38.1935484 51.0967742,38.1935484 Z" id="Path"></path>
                        <path d="M58.3225806,27.8709677 C58.3225806,27.3011613 58.7860645,26.8387097 59.3548387,26.8387097 L60.3870968,26.8387097 L60.3870968,24.7741935 L59.3548387,24.7741935 C57.6474839,24.7741935 56.2580645,26.1636129 56.2580645,27.8709677 L56.2580645,35.0967742 L58.3225806,35.0967742 L58.3225806,27.8709677 Z" id="Path"></path>
                        <polygon id="Path" points="37.6774194 41.2903226 39.7419355 41.2903226 39.7419355 51.6129032 37.6774194 51.6129032"></polygon>
                        <polygon id="Path" points="45.9354839 44.5594839 48 44.5594839 48 55.7419355 45.9354839 55.7419355"></polygon>
                        <polygon id="Path" points="52.1290323 42.3225806 54.1935484 42.3225806 54.1935484 55.7419355 52.1290323 55.7419355"></polygon>
                        <path d="M60.3870968,48.516129 L60.3870968,37.1612903 L58.3225806,37.1612903 L58.3225806,48.516129 C58.3225806,49.0859355 57.8590968,49.5483871 57.2903226,49.5483871 L56.2580645,49.5483871 L56.2580645,51.6129032 L57.2903226,51.6129032 C58.9976774,51.6129032 60.3870968,50.2234839 60.3870968,48.516129 Z" id="Path"></path>
                    </g>
                </g>
            </g>
        </g>
    </g>
</svg>