<?xml version="1.0" encoding="UTF-8"?>
<svg width="82px" height="50px" viewBox="0 0 82 50" version="1.1" xmlns="http://www.w3.org/2000/svg" xmlns:xlink="http://www.w3.org/1999/xlink">
    <!-- Generator: Sketch 61.2 (89653) - https://sketch.com -->
    <title>nextjs-3</title>
    <desc>Created with Sketch.</desc>
    <g id="Cover" stroke="none" stroke-width="1" fill="none" fill-rule="evenodd">
        <g id="Stack" transform="translate(-471.000000, -604.000000)" fill="#000000" fill-rule="nonzero">
            <g id="nextjs-3" transform="translate(471.000000, 604.000000)">
                <path d="M19.4076539,13.0310593 L34.8569052,13.0310593 L34.8569052,14.2617859 L20.8241819,14.2617859 L20.8241819,23.5235718 L34.0199667,23.5235718 L34.0199667,24.7542984 L20.8241819,24.7542984 L20.8241819,34.9229063 L35.0177482,34.9229063 L35.0177482,36.1536328 L19.4076539,36.1536328 L19.4076539,13.0310593 Z M36.2407099,13.0310593 L37.8824182,13.0310593 L45.156406,23.1996672 L52.5912368,13.0310593 L62.703827,0.114808652 L46.0898502,24.2684415 L54.651137,36.1536328 L52.9450915,36.1536328 L45.156406,25.3372158 L37.3355519,36.1536328 L35.661675,36.1536328 L44.2872989,24.2684415 L36.2412646,13.0310593 L36.2407099,13.0310593 Z M55.2628952,14.2617859 L55.2628952,13.0310593 L72.8679978,13.0310593 L72.8679978,14.2617859 L64.7576262,14.2617859 L64.7576262,36.1530782 L63.3410982,36.1530782 L63.3410982,14.2617859 L55.2634498,14.2617859 L55.2628952,14.2617859 Z M0.0804215197,13.0310593 L1.85080422,13.0310593 L26.2606767,49.6383805 L16.1730449,36.1536328 L1.56073211,14.7798114 L1.4963949,36.1536328 L0.0804215197,36.1536328 L0.0804215197,13.0310593 Z M72.7260122,34.5513034 C72.4359401,34.5513034 72.2190793,34.3266778 72.2190793,34.0366057 C72.2190793,33.7459789 72.4359401,33.5213533 72.7254576,33.5213533 C73.0183028,33.5213533 73.2318358,33.7459789 73.2318358,34.0366057 C73.2318358,34.3266778 73.0183028,34.5513034 72.7254576,34.5513034 L72.7260122,34.5513034 Z M74.1170272,33.1963394 L74.875208,33.1963394 C74.885746,33.6078758 75.1858014,33.8840821 75.6261786,33.8840821 C76.1186911,33.8840821 76.3976705,33.5873544 76.3976705,33.0305047 L76.3976705,29.505269 L77.1691625,29.505269 L77.1691625,33.0338325 C77.1691625,34.0366057 76.5906822,34.6139767 75.6328342,34.6139767 C74.7343317,34.6139767 74.1175818,34.0537992 74.1175818,33.1963394 L74.1170272,33.1963394 Z M78.1780366,33.1519689 L78.942873,33.1519689 C79.0083195,33.6250693 79.4697726,33.9256794 80.1347754,33.9256794 C80.7542984,33.9256794 81.209096,33.6039933 81.209096,33.1619523 C81.209096,32.78203 80.9201331,32.5535219 80.2617859,32.3982252 L79.6211869,32.2429285 C78.7226844,32.0321686 78.3122573,31.5962285 78.3122573,30.8635607 C78.3122573,29.9750416 79.0354964,29.3838048 80.120355,29.3838048 C81.1297837,29.3838048 81.8674432,29.9750416 81.9118136,30.8147532 L81.160843,30.8147532 C81.088741,30.3555186 80.6894065,30.0682196 80.1103716,30.0682196 C79.5002773,30.0682196 79.0942873,30.3621742 79.0942873,30.8114254 C79.0942873,31.1674986 79.3560732,31.3716029 80.0038824,31.5235718 L80.5513034,31.6583472 C81.5707155,31.8968386 81.9911259,32.3117027 81.9911259,33.0615641 C81.9911259,34.0155297 81.2534664,34.6139767 80.0759845,34.6139767 C78.9739323,34.6139767 78.2329451,34.0432612 78.1780366,33.1514143 L78.1780366,33.1519689 Z" id="Shape"></path>
            </g>
        </g>
    </g>
</svg>