<?xml version="1.0" encoding="UTF-8"?>
<svg width="50px" height="50px" viewBox="0 0 50 50" version="1.1" xmlns="http://www.w3.org/2000/svg" xmlns:xlink="http://www.w3.org/1999/xlink">
    <!-- Generator: Sketch 61.2 (89653) - https://sketch.com -->
    <title>typescript</title>
    <desc>Created with Sketch.</desc>
    <g id="Cover" stroke="none" stroke-width="1" fill="none" fill-rule="evenodd">
        <g id="Stack" transform="translate(-582.000000, -604.000000)" fill-rule="nonzero">
            <g id="typescript" transform="translate(582.000000, 604.000000)">
                <polyline id="Path" fill="#007ACC" points="0 24.9584027 0 0 49.9168053 0 49.9168053 49.9168053 0 49.9168053"></polyline>
                <path d="M10.9442596,25.0457571 L10.9442596,27.0798669 L17.4334443,27.0798669 L17.4334443,45.5490849 L22.0382696,45.5490849 L22.0382696,27.0798669 L28.5274542,27.0798669 L28.5274542,25.0831947 C28.5274542,23.9600666 28.5274542,23.0490849 28.4775374,23.0241265 C28.4775374,22.9866889 24.5216306,22.9742097 19.7171381,22.9742097 L10.9816972,23.0116473 L10.9816972,25.0582363 L10.9442596,25.0457571 Z M40.1081531,22.9617304 C41.3810316,23.2612313 42.3544093,23.8352745 43.2279534,24.7462562 C43.6896839,25.2454243 44.3760399,26.1189684 44.4259567,26.343594 C44.4259567,26.4184692 42.2670549,27.8785358 40.9567388,28.6896839 C40.906822,28.7271215 40.7071547,28.514975 40.5074875,28.1905158 C39.8585691,27.2670549 39.1971714,26.8677205 38.1613977,26.7928453 C36.6638935,26.6930116 35.6655574,27.4792013 35.6655574,28.7895175 C35.6655574,29.1888519 35.7404326,29.4134775 35.890183,29.7379368 C36.2271215,30.4242928 36.8510815,30.8361065 38.7853577,31.6846922 C42.3544093,33.2196339 43.9018303,34.2304493 44.8377704,35.6780366 C45.8985025,37.3003328 46.1356073,39.8460899 45.4242928,41.7554077 C44.625624,43.8394343 42.6788686,45.249584 39.8960067,45.7113145 C39.0224626,45.8610649 37.0257903,45.8361065 36.0898502,45.6738769 C34.093178,45.2995008 32.1838602,44.3011647 31.0108153,43.015807 C30.5490849,42.5166389 29.6630616,41.1813644 29.7129784,41.09401 L30.187188,40.7945092 L32.0590682,39.7088186 L33.469218,38.8851913 L33.7936772,39.3219634 C34.2054908,39.9708819 35.1289517,40.844426 35.6655574,41.1439268 C37.2878536,41.9800333 39.4592346,41.8677205 40.5324459,40.8943428 C40.9941764,40.4700499 41.1938436,40.0207987 41.1938436,39.3968386 C41.1938436,38.8227953 41.1064892,38.5607321 40.8194676,38.1239601 C40.4201331,37.5748752 39.6214642,37.125624 37.375208,36.1272879 C34.7920133,35.0291181 33.6938436,34.3302829 32.6705491,33.2570715 C32.0840266,32.6081531 31.547421,31.5973378 31.2978369,30.7612313 C31.1106489,30.0374376 31.0482529,28.265391 31.2229617,27.5540765 C31.7595674,25.0582363 33.6439268,23.3111481 36.3394343,22.81198 C37.2129784,22.6372712 39.2720466,22.7121464 40.1331115,22.936772 L40.1081531,22.9617304 L40.1081531,22.9617304 Z" id="Shape" fill="#FFFFFF"></path>
            </g>
        </g>
    </g>
</svg>