<?xml version="1.0" encoding="UTF-8"?>
<svg width="58px" height="50px" viewBox="0 0 58 50" version="1.1" xmlns="http://www.w3.org/2000/svg" xmlns:xlink="http://www.w3.org/1999/xlink">
    <!-- Generator: Sketch 61.2 (89653) - https://sketch.com -->
    <title>Workbox-Logo-Grey</title>
    <desc>Created with Sketch.</desc>
    <g id="Cover" stroke="none" stroke-width="1" fill="none" fill-rule="evenodd">
        <g id="Stack" transform="translate(-662.000000, -604.000000)" fill-rule="nonzero">
            <g id="Workbox-Logo-Grey" transform="translate(662.000000, 604.000000)">
                <polygon id="Path" fill="#616161" points="16.672213 37.6039933 14.0432612 36.8053245 13.9101498 4.99168053 7.85357737 7.88685524 7.52079867 34.9417637 5.3577371 34.2762063 5.19134775 9.15141431 0 11.6472546 0 38.2695507 23.8602329 49.750416 23.8602329 0.166389351 16.9384359 3.49417637"></polygon>
                <g id="Group" transform="translate(26.622296, 0.998336)" fill="#F57C00">
                    <path d="M0.232945092,0.0998336106 L0.232945092,22.3294509 L31.014975,22.8618968 L31.014975,9.58402662 L0.232945092,0.0998336106 Z M7.12146423,11.0815308 L25.9900166,14.7088186 L25.9900166,16.8386023 L7.12146423,14.5091514 L7.12146423,11.0815308 L7.12146423,11.0815308 Z" id="Shape"></path>
                    <path d="M0.232945092,25.5906822 L0.232945092,47.8535774 L31.014975,38.3361065 L31.014975,25.0582363 L0.232945092,25.5906822 Z M7.12146423,33.2445923 L25.9900166,31.0482529 L25.9900166,33.1780366 L7.12146423,36.672213 L7.12146423,33.2445923 L7.12146423,33.2445923 Z" id="Shape"></path>
                </g>
            </g>
        </g>
    </g>
</svg>