<?xml version="1.0" encoding="UTF-8"?>
<svg width="32px" height="24px" viewBox="0 0 32 24" version="1.1" xmlns="http://www.w3.org/2000/svg" xmlns:xlink="http://www.w3.org/1999/xlink">
    <!-- Generator: Sketch 61 (89581) - https://sketch.com -->
    <title>Artboard</title>
    <desc>Created with Sketch.</desc>
    <g id="Artboard" stroke="none" stroke-width="1" fill="none" fill-rule="evenodd">
        <rect id="Rectangle" fill="#D32F2F" x="0" y="0" width="32" height="24" rx="7"></rect>
        <g id="down-arrow" transform="translate(10.000000, 7.000000)" fill="#FFFFFF" fill-rule="nonzero">
            <path d="M11.8307536,0.0280814664 C11.7333605,-0.0123421589 11.6212057,0.00987372709 11.5465906,0.0843910387 L5.99591853,5.63557637 L0.445270876,0.0843910387 C0.343600815,-0.0175478615 0.178533605,-0.0177433809 0.0765947047,0.0839266802 C0.0274460285,0.132953157 -0.000122199593,0.199551935 -4.07397709e-07,0.268961303 L-4.07397709e-07,4.96142566 C-0.000122199593,5.03061507 0.0272505092,5.09701833 0.0761303462,5.14599593 L5.81137271,10.8812383 C5.91316497,10.9830061 6.0781833,10.9830061 6.18,10.8812383 L11.9152424,5.14599593 C11.9642933,5.09709165 11.9918859,5.03068839 11.9918859,4.96142566 L11.9918859,0.268961303 C11.9918859,0.163478615 11.9282444,0.0683828921 11.8307536,0.0280814664 Z" id="Path"></path>
        </g>
    </g>
</svg>